<mxfile host="app.diagrams.net" modified="2022-01-16T15:38:14.265Z" agent="5.0 (Windows)" etag="ZbVbzAeqdxZvH1-Df0tT" version="16.2.7" type="github">
  <diagram id="ht7PcN7X7Xro78kINkiu" name="Page-1">
    <mxGraphModel dx="2050" dy="1092" grid="1" gridSize="10" guides="1" tooltips="1" connect="1" arrows="1" fold="1" page="1" pageScale="1" pageWidth="850" pageHeight="1100" math="0" shadow="0">
      <root>
        <mxCell id="0" />
        <mxCell id="1" parent="0" />
        <mxCell id="AqfSkkNONhGEkMlq465V-1" value="" style="rounded=0;whiteSpace=wrap;html=1;" vertex="1" parent="1">
          <mxGeometry x="85" y="20" width="740" height="1080" as="geometry" />
        </mxCell>
        <mxCell id="AqfSkkNONhGEkMlq465V-2" value="Cluster" style="text;html=1;strokeColor=none;fillColor=none;align=center;verticalAlign=middle;whiteSpace=wrap;rounded=0;" vertex="1" parent="1">
          <mxGeometry x="465" y="40" width="60" height="30" as="geometry" />
        </mxCell>
        <mxCell id="AqfSkkNONhGEkMlq465V-3" value="" style="rounded=0;whiteSpace=wrap;html=1;" vertex="1" parent="1">
          <mxGeometry x="135" y="100" width="650" height="90" as="geometry" />
        </mxCell>
        <mxCell id="AqfSkkNONhGEkMlq465V-4" value="kube-api-server" style="text;html=1;strokeColor=none;fillColor=none;align=center;verticalAlign=middle;whiteSpace=wrap;rounded=0;" vertex="1" parent="1">
          <mxGeometry x="395" y="100" width="100" height="30" as="geometry" />
        </mxCell>
        <mxCell id="AqfSkkNONhGEkMlq465V-5" value="" style="rounded=0;whiteSpace=wrap;html=1;" vertex="1" parent="1">
          <mxGeometry x="135" y="330" width="665" height="680" as="geometry" />
        </mxCell>
        <mxCell id="AqfSkkNONhGEkMlq465V-6" value="Validator" style="text;html=1;strokeColor=none;fillColor=none;align=center;verticalAlign=middle;whiteSpace=wrap;rounded=0;" vertex="1" parent="1">
          <mxGeometry x="465" y="350" width="60" height="30" as="geometry" />
        </mxCell>
        <mxCell id="AqfSkkNONhGEkMlq465V-7" value="" style="rounded=0;whiteSpace=wrap;html=1;" vertex="1" parent="1">
          <mxGeometry x="175" y="420" width="160" height="50" as="geometry" />
        </mxCell>
        <mxCell id="AqfSkkNONhGEkMlq465V-8" value="" style="rounded=0;whiteSpace=wrap;html=1;" vertex="1" parent="1">
          <mxGeometry x="605" y="420" width="160" height="50" as="geometry" />
        </mxCell>
        <mxCell id="AqfSkkNONhGEkMlq465V-9" value="ReceiverConfigs" style="text;html=1;strokeColor=none;fillColor=none;align=center;verticalAlign=middle;whiteSpace=wrap;rounded=0;" vertex="1" parent="1">
          <mxGeometry x="235" y="425" width="60" height="30" as="geometry" />
        </mxCell>
        <mxCell id="AqfSkkNONhGEkMlq465V-10" value="Cache" style="text;html=1;strokeColor=none;fillColor=none;align=center;verticalAlign=middle;whiteSpace=wrap;rounded=0;" vertex="1" parent="1">
          <mxGeometry x="665" y="425" width="60" height="30" as="geometry" />
        </mxCell>
        <mxCell id="AqfSkkNONhGEkMlq465V-11" value="Actor" style="shape=umlActor;verticalLabelPosition=bottom;verticalAlign=top;html=1;outlineConnect=0;" vertex="1" parent="1">
          <mxGeometry x="25" y="115" width="30" height="60" as="geometry" />
        </mxCell>
        <mxCell id="AqfSkkNONhGEkMlq465V-12" value="" style="endArrow=classic;html=1;rounded=0;exitX=0.5;exitY=0.5;exitDx=0;exitDy=0;exitPerimeter=0;entryX=0;entryY=0.5;entryDx=0;entryDy=0;" edge="1" parent="1" source="AqfSkkNONhGEkMlq465V-11" target="AqfSkkNONhGEkMlq465V-3">
          <mxGeometry width="50" height="50" relative="1" as="geometry">
            <mxPoint x="405" y="470" as="sourcePoint" />
            <mxPoint x="455" y="420" as="targetPoint" />
          </mxGeometry>
        </mxCell>
        <mxCell id="AqfSkkNONhGEkMlq465V-14" value="" style="endArrow=classic;startArrow=classic;html=1;rounded=0;entryX=0.186;entryY=1.022;entryDx=0;entryDy=0;exitX=0.5;exitY=0;exitDx=0;exitDy=0;entryPerimeter=0;" edge="1" parent="1" source="AqfSkkNONhGEkMlq465V-7" target="AqfSkkNONhGEkMlq465V-3">
          <mxGeometry width="50" height="50" relative="1" as="geometry">
            <mxPoint x="395" y="470" as="sourcePoint" />
            <mxPoint x="445" y="420" as="targetPoint" />
          </mxGeometry>
        </mxCell>
        <mxCell id="AqfSkkNONhGEkMlq465V-15" value="" style="rounded=0;whiteSpace=wrap;html=1;" vertex="1" parent="1">
          <mxGeometry x="395" y="420" width="160" height="50" as="geometry" />
        </mxCell>
        <mxCell id="AqfSkkNONhGEkMlq465V-16" value="Permant Checker" style="text;html=1;strokeColor=none;fillColor=none;align=center;verticalAlign=middle;whiteSpace=wrap;rounded=0;" vertex="1" parent="1">
          <mxGeometry x="445" y="425" width="60" height="30" as="geometry" />
        </mxCell>
        <mxCell id="AqfSkkNONhGEkMlq465V-17" value="" style="endArrow=classic;html=1;rounded=0;entryX=0.5;entryY=0;entryDx=0;entryDy=0;exitX=0.845;exitY=1.044;exitDx=0;exitDy=0;exitPerimeter=0;" edge="1" parent="1" source="AqfSkkNONhGEkMlq465V-3" target="AqfSkkNONhGEkMlq465V-8">
          <mxGeometry width="50" height="50" relative="1" as="geometry">
            <mxPoint x="395" y="470" as="sourcePoint" />
            <mxPoint x="445" y="420" as="targetPoint" />
          </mxGeometry>
        </mxCell>
        <mxCell id="AqfSkkNONhGEkMlq465V-18" value="" style="rounded=0;whiteSpace=wrap;html=1;" vertex="1" parent="1">
          <mxGeometry x="175" y="600" width="600" height="320" as="geometry" />
        </mxCell>
        <mxCell id="AqfSkkNONhGEkMlq465V-19" value="Filter configs" style="rounded=0;whiteSpace=wrap;html=1;" vertex="1" parent="1">
          <mxGeometry x="175" y="520" width="380" height="40" as="geometry" />
        </mxCell>
        <mxCell id="AqfSkkNONhGEkMlq465V-20" value="" style="endArrow=classic;html=1;rounded=0;exitX=0.5;exitY=1;exitDx=0;exitDy=0;entryX=0.211;entryY=0.05;entryDx=0;entryDy=0;entryPerimeter=0;" edge="1" parent="1" source="AqfSkkNONhGEkMlq465V-7" target="AqfSkkNONhGEkMlq465V-19">
          <mxGeometry width="50" height="50" relative="1" as="geometry">
            <mxPoint x="395" y="470" as="sourcePoint" />
            <mxPoint x="445" y="420" as="targetPoint" />
          </mxGeometry>
        </mxCell>
        <mxCell id="AqfSkkNONhGEkMlq465V-21" value="" style="endArrow=classic;html=1;rounded=0;exitX=0.5;exitY=1;exitDx=0;exitDy=0;entryX=0.315;entryY=-0.01;entryDx=0;entryDy=0;entryPerimeter=0;" edge="1" parent="1" source="AqfSkkNONhGEkMlq465V-19" target="AqfSkkNONhGEkMlq465V-18">
          <mxGeometry width="50" height="50" relative="1" as="geometry">
            <mxPoint x="390" y="610" as="sourcePoint" />
            <mxPoint x="440" y="560" as="targetPoint" />
          </mxGeometry>
        </mxCell>
        <mxCell id="AqfSkkNONhGEkMlq465V-22" value="&lt;div&gt;Kafka&lt;/div&gt;&lt;div&gt;Topic current&lt;br&gt;&lt;/div&gt;" style="rounded=0;whiteSpace=wrap;html=1;" vertex="1" parent="1">
          <mxGeometry x="350" y="1030" width="120" height="60" as="geometry" />
        </mxCell>
        <mxCell id="AqfSkkNONhGEkMlq465V-23" value="&lt;div&gt;Kafka&lt;/div&gt;&lt;div&gt;Topic current&lt;br&gt;&lt;/div&gt;" style="rounded=0;whiteSpace=wrap;html=1;" vertex="1" parent="1">
          <mxGeometry x="525" y="1030" width="120" height="60" as="geometry" />
        </mxCell>
        <mxCell id="AqfSkkNONhGEkMlq465V-24" value="" style="endArrow=classic;html=1;rounded=0;exitX=0.5;exitY=1;exitDx=0;exitDy=0;" edge="1" parent="1" source="AqfSkkNONhGEkMlq465V-15">
          <mxGeometry width="50" height="50" relative="1" as="geometry">
            <mxPoint x="390" y="610" as="sourcePoint" />
            <mxPoint x="475" y="520" as="targetPoint" />
          </mxGeometry>
        </mxCell>
        <mxCell id="AqfSkkNONhGEkMlq465V-26" value="" style="endArrow=none;html=1;rounded=0;entryX=0;entryY=0.5;entryDx=0;entryDy=0;exitX=1;exitY=0.5;exitDx=0;exitDy=0;" edge="1" parent="1" source="AqfSkkNONhGEkMlq465V-15" target="AqfSkkNONhGEkMlq465V-8">
          <mxGeometry width="50" height="50" relative="1" as="geometry">
            <mxPoint x="560" y="445" as="sourcePoint" />
            <mxPoint x="440" y="560" as="targetPoint" />
          </mxGeometry>
        </mxCell>
        <mxCell id="AqfSkkNONhGEkMlq465V-27" value="" style="ellipse;whiteSpace=wrap;html=1;aspect=fixed;" vertex="1" parent="1">
          <mxGeometry x="225" y="630" width="40" height="40" as="geometry" />
        </mxCell>
        <mxCell id="AqfSkkNONhGEkMlq465V-28" value="Type config?" style="rhombus;whiteSpace=wrap;html=1;" vertex="1" parent="1">
          <mxGeometry x="455" y="610" width="80" height="80" as="geometry" />
        </mxCell>
        <mxCell id="AqfSkkNONhGEkMlq465V-31" value="" style="rounded=1;whiteSpace=wrap;html=1;" vertex="1" parent="1">
          <mxGeometry x="330" y="730" width="330" height="110" as="geometry" />
        </mxCell>
        <mxCell id="AqfSkkNONhGEkMlq465V-32" value="Check correct config" style="rounded=0;whiteSpace=wrap;html=1;" vertex="1" parent="1">
          <mxGeometry x="365" y="755" width="120" height="60" as="geometry" />
        </mxCell>
        <mxCell id="AqfSkkNONhGEkMlq465V-33" value="Check conflicts" style="rounded=0;whiteSpace=wrap;html=1;" vertex="1" parent="1">
          <mxGeometry x="522.5" y="755" width="120" height="60" as="geometry" />
        </mxCell>
        <mxCell id="AqfSkkNONhGEkMlq465V-34" value="" style="endArrow=classic;html=1;rounded=0;exitX=0.5;exitY=1;exitDx=0;exitDy=0;entryX=0.5;entryY=0;entryDx=0;entryDy=0;" edge="1" parent="1" source="AqfSkkNONhGEkMlq465V-28" target="AqfSkkNONhGEkMlq465V-31">
          <mxGeometry width="50" height="50" relative="1" as="geometry">
            <mxPoint x="390" y="610" as="sourcePoint" />
            <mxPoint x="440" y="560" as="targetPoint" />
          </mxGeometry>
        </mxCell>
        <mxCell id="AqfSkkNONhGEkMlq465V-35" value="" style="endArrow=none;html=1;rounded=0;entryX=0.5;entryY=1;entryDx=0;entryDy=0;exitX=1;exitY=0.5;exitDx=0;exitDy=0;" edge="1" parent="1" source="AqfSkkNONhGEkMlq465V-33">
          <mxGeometry width="50" height="50" relative="1" as="geometry">
            <mxPoint x="582.5" y="755" as="sourcePoint" />
            <mxPoint x="685" y="470" as="targetPoint" />
            <Array as="points">
              <mxPoint x="685" y="785" />
            </Array>
          </mxGeometry>
        </mxCell>
        <mxCell id="AqfSkkNONhGEkMlq465V-36" value="" style="ellipse;html=1;shape=endState;fillColor=#000000;strokeColor=#ff0000;" vertex="1" parent="1">
          <mxGeometry x="225" y="770" width="30" height="30" as="geometry" />
        </mxCell>
        <mxCell id="AqfSkkNONhGEkMlq465V-37" value="" style="endArrow=classic;html=1;rounded=0;entryX=1;entryY=0.5;entryDx=0;entryDy=0;exitX=0;exitY=0.5;exitDx=0;exitDy=0;" edge="1" parent="1" source="AqfSkkNONhGEkMlq465V-31" target="AqfSkkNONhGEkMlq465V-36">
          <mxGeometry width="50" height="50" relative="1" as="geometry">
            <mxPoint x="390" y="610" as="sourcePoint" />
            <mxPoint x="440" y="560" as="targetPoint" />
          </mxGeometry>
        </mxCell>
        <mxCell id="AqfSkkNONhGEkMlq465V-38" value="" style="endArrow=classic;html=1;rounded=0;exitX=0.25;exitY=1;exitDx=0;exitDy=0;entryX=0.5;entryY=0;entryDx=0;entryDy=0;" edge="1" parent="1" source="AqfSkkNONhGEkMlq465V-31" target="AqfSkkNONhGEkMlq465V-22">
          <mxGeometry width="50" height="50" relative="1" as="geometry">
            <mxPoint x="390" y="610" as="sourcePoint" />
            <mxPoint x="440" y="560" as="targetPoint" />
          </mxGeometry>
        </mxCell>
        <mxCell id="AqfSkkNONhGEkMlq465V-39" value="" style="endArrow=classic;html=1;rounded=0;entryX=0.5;entryY=0;entryDx=0;entryDy=0;" edge="1" parent="1" target="AqfSkkNONhGEkMlq465V-23">
          <mxGeometry width="50" height="50" relative="1" as="geometry">
            <mxPoint x="585" y="840" as="sourcePoint" />
            <mxPoint x="440" y="560" as="targetPoint" />
          </mxGeometry>
        </mxCell>
        <mxCell id="AqfSkkNONhGEkMlq465V-42" value="For config in configs" style="shape=hexagon;perimeter=hexagonPerimeter2;whiteSpace=wrap;html=1;fixedSize=1;" vertex="1" parent="1">
          <mxGeometry x="300" y="610" width="120" height="80" as="geometry" />
        </mxCell>
        <mxCell id="AqfSkkNONhGEkMlq465V-43" value="" style="endArrow=classic;html=1;rounded=0;exitX=1;exitY=0.5;exitDx=0;exitDy=0;entryX=0;entryY=0.5;entryDx=0;entryDy=0;" edge="1" parent="1" source="AqfSkkNONhGEkMlq465V-27" target="AqfSkkNONhGEkMlq465V-42">
          <mxGeometry width="50" height="50" relative="1" as="geometry">
            <mxPoint x="390" y="610" as="sourcePoint" />
            <mxPoint x="440" y="560" as="targetPoint" />
          </mxGeometry>
        </mxCell>
        <mxCell id="AqfSkkNONhGEkMlq465V-44" value="" style="endArrow=classic;html=1;rounded=0;exitX=1;exitY=0.5;exitDx=0;exitDy=0;entryX=0;entryY=0.5;entryDx=0;entryDy=0;" edge="1" parent="1" source="AqfSkkNONhGEkMlq465V-42" target="AqfSkkNONhGEkMlq465V-28">
          <mxGeometry width="50" height="50" relative="1" as="geometry">
            <mxPoint x="390" y="610" as="sourcePoint" />
            <mxPoint x="440" y="560" as="targetPoint" />
          </mxGeometry>
        </mxCell>
        <mxCell id="AqfSkkNONhGEkMlq465V-45" value="" style="endArrow=classic;html=1;rounded=0;entryX=0;entryY=0.75;entryDx=0;entryDy=0;" edge="1" parent="1" target="AqfSkkNONhGEkMlq465V-3">
          <mxGeometry width="50" height="50" relative="1" as="geometry">
            <mxPoint x="135" y="770" as="sourcePoint" />
            <mxPoint x="440" y="520" as="targetPoint" />
            <Array as="points">
              <mxPoint x="110" y="770" />
              <mxPoint x="110" y="168" />
            </Array>
          </mxGeometry>
        </mxCell>
        <mxCell id="AqfSkkNONhGEkMlq465V-46" value="" style="endArrow=classic;html=1;rounded=0;entryX=0.003;entryY=0.646;entryDx=0;entryDy=0;entryPerimeter=0;" edge="1" parent="1" source="AqfSkkNONhGEkMlq465V-18" target="AqfSkkNONhGEkMlq465V-5">
          <mxGeometry width="50" height="50" relative="1" as="geometry">
            <mxPoint x="390" y="570" as="sourcePoint" />
            <mxPoint x="140" y="770" as="targetPoint" />
          </mxGeometry>
        </mxCell>
        <mxCell id="AqfSkkNONhGEkMlq465V-47" value="&lt;div&gt;Authorization&lt;/div&gt;&lt;div&gt;Authentication&lt;br&gt;&lt;/div&gt;" style="rounded=0;whiteSpace=wrap;html=1;" vertex="1" parent="1">
          <mxGeometry x="230" y="115" width="120" height="60" as="geometry" />
        </mxCell>
        <mxCell id="AqfSkkNONhGEkMlq465V-48" value="Webhooks" style="rounded=0;whiteSpace=wrap;html=1;" vertex="1" parent="1">
          <mxGeometry x="605" y="115" width="120" height="60" as="geometry" />
        </mxCell>
      </root>
    </mxGraphModel>
  </diagram>
</mxfile>
